<svg width="82" height="82" viewBox="0 0 82 82" fill="none" xmlns="http://www.w3.org/2000/svg">
<path d="M30.7498 34.1667C34.5239 34.1667 37.5832 31.1073 37.5832 27.3333C37.5832 23.5594 34.5239 20.5 30.7498 20.5C26.9759 20.5 23.9165 23.5594 23.9165 27.3333C23.9165 31.1073 26.9759 34.1667 30.7498 34.1667Z" stroke="#979797" stroke-width="2.5" stroke-linecap="round" stroke-linejoin="round"/>
<path d="M44.4168 6.83325H30.7502C13.6668 6.83325 6.8335 13.6666 6.8335 30.7499V51.2499C6.8335 68.3333 13.6668 75.1666 30.7502 75.1666H51.2502C68.3335 75.1666 75.1668 68.3333 75.1668 51.2499V34.1666" stroke="#979797" stroke-width="2.5" stroke-linecap="round" stroke-linejoin="round"/>
<path d="M53.8125 17.0833H72.6042" stroke="#979797" stroke-width="2.5" stroke-linecap="round"/>
<path d="M63.2085 26.4792V7.6875" stroke="#979797" stroke-width="2.5" stroke-linecap="round"/>
<path d="M9.12256 64.7461L25.9667 53.4369C28.6659 51.6261 32.5609 51.8311 34.9866 53.9152L36.1141 54.9061C38.7791 57.1952 43.0841 57.1952 45.7491 54.9061L59.9624 42.7086C62.6274 40.4194 66.9324 40.4194 69.5974 42.7086L75.1666 47.4919" stroke="#979797" stroke-width="2.5" stroke-linecap="round" stroke-linejoin="round"/>
</svg>
