<svg width="40" height="40" viewBox="0 0 40 40" fill="none" xmlns="http://www.w3.org/2000/svg">
<path d="M35.1163 8.71667C32.433 8.45 29.7497 8.25 27.0497 8.1V8.08333L26.683 5.91667C26.433 4.38333 26.0663 2.08333 22.1663 2.08333H17.7997C13.9163 2.08333 13.5496 4.28333 13.2829 5.9L12.9329 8.03333C11.3829 8.13333 9.83294 8.23333 8.28294 8.38333L4.88295 8.71667C4.18295 8.78333 3.68294 9.4 3.74961 10.0833C3.81628 10.7667 4.41628 11.2667 5.11628 11.2L8.51628 10.8667C17.2497 10 26.0497 10.3333 34.883 11.2167C34.933 11.2167 34.9663 11.2167 35.0163 11.2167C35.6497 11.2167 36.1997 10.7333 36.2663 10.0833C36.3163 9.4 35.8163 8.78333 35.1163 8.71667Z" fill="#FF2626"/>
<path d="M32.0493 13.5667C31.6493 13.15 31.0993 12.9167 30.5327 12.9167H9.46609C8.89942 12.9167 8.33275 13.15 7.94942 13.5667C7.56609 13.9833 7.34942 14.55 7.38275 15.1333L8.41609 32.2333C8.59942 34.7667 8.83275 37.9333 14.6494 37.9333H25.3493C31.166 37.9333 31.3995 34.7833 31.5827 32.2333L32.616 15.15C32.6493 14.55 32.4327 13.9833 32.0493 13.5667ZM22.766 29.5833H17.216C16.5328 29.5833 15.9661 29.0167 15.9661 28.3333C15.9661 27.65 16.5328 27.0833 17.216 27.0833H22.766C23.4493 27.0833 24.016 27.65 24.016 28.3333C24.016 29.0167 23.4493 29.5833 22.766 29.5833ZM24.166 22.9167H15.8328C15.1494 22.9167 14.5828 22.35 14.5828 21.6667C14.5828 20.9833 15.1494 20.4167 15.8328 20.4167H24.166C24.8493 20.4167 25.416 20.9833 25.416 21.6667C25.416 22.35 24.8493 22.9167 24.166 22.9167Z" fill="#FF2626"/>
</svg>
