<svg width="502" height="507" viewBox="0 0 502 507" fill="none" xmlns="http://www.w3.org/2000/svg">
<g filter="url(#filter0_d_191_2842)">
<rect x="66" y="62" width="370" height="375" rx="100" fill="url(#paint0_linear_191_2842)"/>
<path d="M256.37 327.031L241.895 292.058L239.324 285.934C239.172 284.39 239.258 282.831 239.58 281.313C239.854 280.169 240.191 278.997 240.59 277.8C240.978 276.575 241.318 275.335 241.611 274.084C242.465 270.355 242.964 266.553 243.1 262.73L243.101 262.388C244.483 261.245 245.255 259.992 247.34 259.314C249.708 258.572 258.728 258.316 263.318 251.954C267.937 245.586 272.212 240.955 269.166 228.353C266.905 219.149 263.6 213.356 257.269 204.653C251.444 196.621 252.418 191.236 253.173 187.598C253.928 183.959 251.962 185.484 250.694 188.5C249.426 191.515 244.297 200.191 240.038 203.408C235.777 206.625 227.782 212.688 226.125 215.353C224.469 218.018 225.45 218.916 224.033 220.561C222.616 222.206 222.102 226.33 221.845 227.602C221.606 228.884 220.106 239.651 224.411 244.166C228.691 248.717 227.261 249.59 229.321 251.585C231.368 253.597 235.002 254.135 237.07 255.478C238.595 256.465 240.977 259.055 242.011 261.045C241.946 262.831 241.757 264.611 241.445 266.372C240.847 270.032 239.901 273.627 238.62 277.108C238.162 278.264 237.747 279.485 237.373 280.772L237.295 281.033L227.365 257.126C222.497 245.491 217.662 233.835 212.859 222.158L211.992 219.968L211.549 218.867L211.148 217.822C211.115 216.958 211.03 216.098 210.895 215.245C210.755 214.338 210.655 213.477 210.594 212.66C210.521 211.614 210.575 210.562 210.756 209.529L210.818 209.177L210.864 208.735C210.907 208.204 210.902 207.67 210.847 207.14C210.708 206.178 210.479 205.232 210.161 204.313C209.858 203.416 209.518 202.545 209.142 201.702C208.64 200.559 208.094 199.43 207.504 198.313C207.887 197.472 208.132 196.575 208.23 195.656C208.459 193.522 209.755 192.69 211.239 190.535C212.721 188.381 214.197 182.847 214.469 180.162C214.599 176.25 214.104 172.342 213.001 168.586C211.195 164.706 208.895 161.075 206.159 157.784C203.355 154.741 199.372 152.403 196.025 151.643C193.625 151.254 191.319 150.419 189.227 149.18C186.627 147.731 184.194 148.718 181.705 147.373C179.216 146.027 174.604 144.249 173.418 139.991C172.196 135.707 170.837 136.893 171.232 138.25C171.622 139.578 172.245 146.976 172.726 149.001C173.208 151.026 173.825 155.493 172.504 158.208C171.182 160.923 170.94 165.713 170.606 170.332C170.305 174.472 170.927 178.627 172.428 182.498C173.835 186.516 178.558 190.245 179.701 190.12C180.844 189.997 182.721 191.047 184.129 192.164C185.537 193.28 188.124 194.485 190.533 194.324C192.942 194.163 194.262 195.404 197.635 195.336C200.272 195.336 203.531 196.826 205.612 198.15C206.673 200.319 207.558 202.57 208.258 204.881C208.492 205.73 208.643 206.557 208.712 207.361C208.734 207.781 208.729 208.165 208.698 208.512L208.424 209.769C208.133 211.252 208.066 212.77 208.224 214.272L207.636 213.756L203.989 210.675C202.739 209.696 201.549 208.696 200.417 207.675L199.993 207.299L199.783 207.074L199.676 206.999L199.525 206.839C199.104 206.51 198.7 206.245 198.313 206.044C197.522 205.667 196.74 205.339 195.966 205.062C194.403 204.531 192.848 204.102 191.3 203.775C188.34 203.089 185.345 202.561 182.329 202.191C182.018 201.824 181.749 201.424 181.528 200.998C180.428 198.989 179.223 192.687 171.796 185.432C164.37 178.178 155.053 177.276 150.529 178.12C146.006 178.963 131.383 185.557 127.292 187.178C123.2 188.8 118.898 184.733 119.002 185.94C119.106 187.148 120.199 188.149 121.723 189.928C123.261 191.689 125.757 191.327 127.727 192.546C129.691 193.736 132.161 196.388 134.118 198.417C136.075 200.445 138.672 205.401 143.939 210.616C149.204 215.831 157.99 215.306 160.406 215.098C162.822 214.889 166.809 213.381 167.976 212.957C169.108 212.509 172.654 211.062 175.542 208.335C177.952 206.064 180.026 204.8 182.333 203.803C185.176 204.365 187.999 205.021 190.798 205.771C192.308 206.177 193.773 206.648 195.192 207.184C195.878 207.443 196.544 207.751 197.186 208.105L197.983 208.663L198.082 208.784L198.276 208.999L198.728 209.446C199.913 210.54 201.105 211.602 202.301 212.633C203.517 213.659 204.692 214.693 205.828 215.734C206.647 216.487 207.434 217.275 208.185 218.096L208.399 218.43L208.422 218.472L208.495 218.708C208.621 219.13 208.762 219.519 208.918 219.874L209.329 220.98L210.203 223.2C214.812 234.953 219.459 246.688 224.145 258.407L225.121 260.856C224.084 260.017 223.003 259.233 221.882 258.51L220.402 257.686L214.561 254.759L211.24 253.096C210.86 252.412 210.574 251.68 210.39 250.919C209.85 248.563 210.983 241.786 211.812 237.777C212.611 233.773 209.104 227.706 205.906 224.887C202.72 222.052 196.359 218.022 192.817 217.127C189.241 216.206 184.006 214.336 174.565 216.698C165.125 219.06 161.254 218.935 156.692 218.326C152.13 217.719 144.769 212.595 146.475 215.582C148.182 218.57 154.072 224.063 155.478 226.049C156.865 228.023 157.795 230.652 160.108 237.069C162.427 243.439 162.869 248.759 165.877 253.844C168.886 258.931 173.774 259.371 174.798 261.037C175.834 262.685 180.256 265.489 185.767 265.759C191.285 266.059 198.92 261.037 201.236 258.86C203.554 256.684 209.604 255.168 211.336 254.692L213.839 256.127C215.735 257.19 217.609 258.282 219.462 259.403C221.257 260.421 222.845 261.769 224.364 263.254C225.455 264.335 226.481 265.457 227.441 266.622L238.274 293.534L240.63 299.401C239.377 298.578 238.103 297.872 236.81 297.283L234.624 296.333L234.072 296.105L233.786 295.984L233.472 295.869C233.095 295.73 232.706 295.607 232.304 295.501C230.771 295.079 229.238 294.692 227.707 294.341L223.111 293.367L220.794 292.908C221.41 290.673 216.59 284.293 216.503 283.099C216.417 281.904 213.716 278.564 213.16 276.646C212.592 274.745 206.132 270.858 204.453 269.262C202.743 267.67 199.077 266.764 193.261 266.703C187.414 266.647 175.897 271.221 171.123 275.133C166.38 279.041 160.742 284.565 157.894 289.455C155.049 294.347 151.519 298.18 149.049 298.879C146.568 299.596 139.45 299.283 139.136 299.695C138.82 300.107 141.456 302.032 143.766 302.277C147.301 302.986 150.785 303.926 154.196 305.092C156.059 305.71 157.756 307.319 159.137 308.813C160.537 310.32 163.644 312.889 165.902 314.865C168.173 316.824 170.74 318.884 173.164 319.868C175.588 320.852 181.126 323.91 182.816 323.984C184.531 324.024 190.869 325.637 193.46 325.63C196.038 325.641 200.273 324.832 201.35 323.635C202.445 322.45 203.47 322.454 204.914 321.223C206.358 319.991 211.891 315.293 214.166 312.612C216.441 309.931 217.804 304.37 217.899 301.483C218.069 298.861 218.835 296.312 220.139 294.031L222.787 294.697L227.312 295.885C229.169 296.371 231.001 296.949 232.801 297.616L233.039 297.729L233.276 297.843L233.817 298.089L235.892 299.119C237.228 299.807 238.502 300.61 239.699 301.52C240.804 302.328 241.775 303.253 242.611 304.295L252.489 328.616L252.525 328.64C252.738 329.148 253.142 329.551 253.65 329.763C254.158 329.975 254.729 329.979 255.24 329.774C255.743 329.548 256.14 329.137 256.35 328.627C256.56 328.117 256.567 327.546 256.369 327.031" stroke="#2E7D32" stroke-width="1.86"/>
<path d="M312.709 310.845V221.671L336.957 220.353C348.391 219.912 358.288 217.715 366.647 213.76C371.046 211.67 374.509 208.786 377.037 205.106C379.566 201.422 380.83 197.053 380.83 192L382.81 192.163C382.81 200.954 379.511 207.685 372.913 212.356C366.314 217.028 357.738 220.022 347.184 221.34C346.414 221.34 345.148 221.286 343.387 221.179V221.503C344.927 221.723 346.193 221.943 347.184 222.164C350.813 223.155 353.781 225.105 356.088 228.015C358.4 230.928 359.555 234.007 359.555 237.249C359.555 240.488 358.949 242.767 357.738 244.086L356.419 243.1C357.077 241.559 357.406 239.747 357.406 237.662C357.406 233.045 355.565 229.336 351.883 226.535C348.201 223.729 343.501 222.327 337.782 222.327H335.801L315.021 223.482V272.439H335.47C343.388 272.439 347.347 270.188 347.347 265.684C347.347 264.473 347.073 263.317 346.523 262.218L348.172 261.394C349.051 262.493 349.491 264.004 349.491 265.928C349.491 267.851 348.749 269.526 347.266 270.954C345.779 272.385 343.992 273.266 341.906 273.595C346.192 275.023 348.776 279.087 349.659 285.789L347.678 286.289C346.908 282.001 345.644 278.95 343.886 277.135C342.124 275.324 339.265 274.419 335.307 274.419H315.02V310.845C315.02 317.002 316.01 321.508 317.989 324.364C319.968 327.219 323.706 328.647 329.203 328.647C331.182 328.647 333.382 328.372 335.802 327.822L336.133 329.471C334.154 330.132 331.679 330.463 328.71 330.463C322.883 330.463 318.759 328.842 316.339 325.6C313.919 322.357 312.709 317.439 312.709 310.845ZM308.423 228.757V310.845C308.423 317.439 307.213 322.357 304.794 325.6C302.374 328.842 298.25 330.463 292.423 330.463C289.453 330.463 286.978 330.132 285 329.471L285.331 327.822C287.747 328.372 289.946 328.647 291.929 328.647C297.427 328.647 301.165 327.219 303.144 324.363C305.122 321.508 306.112 317.002 306.112 310.845V228.757C306.112 222.605 305.122 218.099 303.143 215.24C301.165 212.384 297.427 210.956 291.929 210.956C289.946 210.956 287.747 211.231 285.331 211.781L285 210.132C286.979 209.471 289.453 209.141 292.423 209.141C298.25 209.141 302.374 210.762 304.794 214.003C307.213 217.245 308.423 222.162 308.423 228.757Z" fill="#2E7D32"/>
<path d="M210.412 344.846C210.052 344.846 209.778 344.875 209.589 344.934C209.401 344.993 209.24 345.098 209.105 345.249C208.971 345.34 208.842 345.491 208.718 345.7C208.6 345.91 208.53 346.098 208.508 346.264L207 346.127C207.156 345.257 207.508 344.547 208.057 343.999C208.395 343.752 208.759 343.572 209.146 343.459C209.533 343.346 210.011 343.279 210.582 343.258H222.649L222.447 344.846H212.033L211.146 351.601H218.245L218.019 353.189H210.92L209.67 362.669H208.024L210.412 344.846ZM225.045 360.315C225.023 360.579 225.08 360.791 225.214 360.952C225.349 361.113 225.529 361.194 225.755 361.194C226.153 361.194 226.454 361.025 226.658 360.686L227.795 361.678C227.607 361.979 227.319 362.239 226.932 362.46C226.545 362.674 226.134 362.782 225.698 362.782C224.94 362.782 224.348 362.537 223.923 362.048C223.499 361.554 223.332 360.928 223.423 360.17L224.956 348.457H226.602L225.045 360.315ZM226.005 346.611C225.703 346.611 225.448 346.506 225.238 346.297C225.034 346.087 224.932 345.832 224.932 345.531C224.932 345.155 225.053 344.838 225.295 344.58C225.542 344.322 225.838 344.193 226.182 344.193C226.499 344.193 226.763 344.297 226.973 344.507C227.182 344.717 227.287 344.983 227.287 345.305C227.287 345.665 227.158 345.972 226.9 346.224C226.647 346.482 226.349 346.611 226.005 346.611ZM235.822 362.927C233.988 362.927 232.587 362.411 231.619 361.379C230.656 360.347 230.175 358.98 230.175 357.276C230.175 356.862 230.202 356.446 230.256 356.027C230.428 354.742 230.823 353.503 231.441 352.31C232.054 351.117 232.883 350.139 233.926 349.376C234.964 348.608 236.155 348.223 237.499 348.223C238.79 348.223 239.866 348.575 240.726 349.279C241.586 349.978 242.017 350.913 242.017 352.085C242.017 353.654 241.382 354.866 240.113 355.72C238.844 356.569 237.12 356.986 234.942 356.97L231.877 356.994C231.839 358.434 232.157 359.528 232.829 360.275C233.501 361.022 234.509 361.395 235.854 361.395C236.703 361.395 237.499 361.272 238.241 361.025C238.978 360.777 239.715 360.409 240.452 359.92L241.194 361.113C240.414 361.678 239.562 362.121 238.637 362.443C237.706 362.766 236.768 362.927 235.822 362.927ZM235.426 355.495C236.83 355.495 237.97 355.253 238.846 354.769C239.728 354.285 240.237 353.522 240.371 352.48C240.387 352.388 240.395 352.238 240.395 352.028C240.395 351.254 240.126 350.682 239.589 350.311C239.051 349.94 238.365 349.755 237.532 349.755C236.488 349.755 235.563 350.064 234.757 350.682C233.956 351.295 233.318 352.05 232.845 352.947C232.372 353.85 232.087 354.718 231.99 355.551L235.426 355.495ZM245.961 360.315C245.945 360.579 246.001 360.791 246.131 360.952C246.265 361.113 246.445 361.194 246.671 361.194C247.069 361.194 247.373 361.025 247.582 360.686L248.72 361.678C248.526 361.979 248.236 362.239 247.849 362.46C247.461 362.674 247.05 362.782 246.614 362.782C245.856 362.782 245.265 362.537 244.84 362.048C244.415 361.554 244.251 360.928 244.348 360.17L246.727 342.04H248.373L245.961 360.315ZM256.101 362.919C254.434 362.919 253.156 362.355 252.269 361.226C251.376 360.103 250.93 358.671 250.93 356.929C250.93 356.478 250.96 356.024 251.019 355.567C251.207 354.132 251.643 352.861 252.326 351.754C253.003 350.647 253.893 349.782 254.996 349.158C256.093 348.53 257.321 348.215 258.682 348.215C259.704 348.215 260.811 348.301 262.005 348.473L262.885 342H264.53L262.118 360.251C262.102 360.326 262.094 360.42 262.094 360.533C262.094 361.081 262.331 361.355 262.804 361.355C263.164 361.355 263.465 361.186 263.707 360.847L264.821 361.871C264.498 362.263 264.162 362.537 263.812 362.693C263.463 362.844 263.07 362.919 262.635 362.919C261.968 362.919 261.416 362.688 260.981 362.226C260.545 361.758 260.376 361.213 260.473 360.589C259.924 361.363 259.276 361.946 258.529 362.339C257.781 362.726 256.972 362.919 256.101 362.919ZM256.238 361.387C257.055 361.387 257.813 361.178 258.513 360.759C259.212 360.345 259.779 359.77 260.215 359.033C260.559 358.561 260.777 357.964 260.868 357.244L261.892 349.981L261.271 349.892C260.475 349.758 259.792 349.69 259.222 349.69C257.179 349.69 255.636 350.217 254.592 351.27C253.554 352.318 252.912 353.743 252.664 355.543C252.605 355.935 252.576 356.33 252.576 356.728C252.576 358.109 252.893 359.232 253.527 360.098C254.162 360.957 255.066 361.387 256.238 361.387ZM276.63 352.939H284.89L284.608 355.293C284.398 356.846 283.844 358.227 282.946 359.437C282.048 360.646 280.951 361.581 279.655 362.242C278.359 362.908 277.039 363.241 275.694 363.241C274.124 363.241 272.731 362.863 271.516 362.105C270.306 361.347 269.375 360.321 268.725 359.025C268.069 357.73 267.741 356.287 267.741 354.697C267.741 354.224 267.77 353.732 267.829 353.221C268.077 351.346 268.706 349.615 269.717 348.03C270.728 346.439 272 345.171 273.532 344.225C275.065 343.279 276.713 342.806 278.477 342.806C279.386 342.806 280.314 342.949 281.26 343.233C282.207 343.518 282.986 343.972 283.599 344.596C284.218 345.219 284.471 346.012 284.358 346.974C284.239 347.753 283.93 348.385 283.43 348.868C282.93 349.347 282.338 349.586 281.655 349.586C281.37 349.586 281.109 349.529 280.873 349.416C280.636 349.304 280.443 349.161 280.292 348.989L281.171 347.885C281.23 347.944 281.317 347.992 281.429 348.03C281.542 348.067 281.636 348.086 281.712 348.086C282.013 348.086 282.287 347.93 282.535 347.619C282.782 347.307 282.906 346.96 282.906 346.579C282.906 345.843 282.438 345.294 281.502 344.934C280.561 344.574 279.579 344.394 278.558 344.394C277.084 344.394 275.683 344.805 274.355 345.628C273.032 346.45 271.935 347.552 271.064 348.933C270.193 350.314 269.652 351.811 269.443 353.423C269.389 353.815 269.362 354.202 269.362 354.584C269.362 355.852 269.626 357.029 270.153 358.114C270.685 359.205 271.43 360.065 272.387 360.694C273.344 361.328 274.417 361.645 275.605 361.645C276.783 361.645 277.915 361.371 279.001 360.823C280.088 360.275 280.991 359.52 281.712 358.558C282.432 357.591 282.868 356.529 283.019 355.374L283.131 354.527H276.428L276.63 352.939ZM299.942 360.855L301.047 361.879C300.708 362.271 300.364 362.546 300.015 362.701C299.665 362.852 299.281 362.927 298.861 362.927C298.2 362.927 297.651 362.696 297.215 362.234C296.78 361.766 296.611 361.221 296.707 360.597C295.971 361.355 295.207 361.922 294.416 362.298C293.631 362.68 292.776 362.871 291.851 362.871C290.469 362.871 289.429 362.516 288.73 361.807C288.025 361.097 287.732 360.041 287.85 358.638L288.641 352.568C288.7 352.192 288.73 351.851 288.73 351.545C288.73 350.583 288.463 349.836 287.931 349.304L289.125 348.223C289.485 348.492 289.797 348.882 290.061 349.392C290.324 349.903 290.456 350.459 290.456 351.061C290.456 351.27 290.448 351.432 290.432 351.545L289.577 358.018C289.539 358.432 289.52 358.724 289.52 358.896C289.52 359.692 289.719 360.296 290.117 360.71C290.515 361.129 291.158 361.339 292.045 361.339C293.072 361.339 293.986 361.105 294.787 360.638C295.594 360.175 296.299 359.453 296.901 358.469L298.264 348.457H299.918L298.353 360.259C298.331 360.334 298.321 360.428 298.321 360.541C298.321 361.089 298.557 361.363 299.03 361.363C299.391 361.363 299.695 361.194 299.942 360.855ZM308.46 362.927C306.793 362.927 305.516 362.363 304.629 361.234C303.741 360.111 303.298 358.679 303.298 356.938C303.298 356.486 303.325 356.032 303.378 355.575C303.567 354.14 304.007 352.864 304.701 351.746C305.39 350.628 306.282 349.763 307.379 349.15C308.482 348.532 309.713 348.223 311.074 348.223C312.096 348.223 313.203 348.309 314.397 348.481H316.075L314.542 360.259C314.521 360.334 314.51 360.428 314.51 360.541C314.51 361.089 314.747 361.363 315.22 361.363C315.58 361.363 315.884 361.194 316.131 360.855L317.237 361.879C316.898 362.271 316.551 362.546 316.196 362.701C315.846 362.852 315.465 362.927 315.05 362.927C314.389 362.927 313.841 362.696 313.405 362.234C312.969 361.766 312.797 361.221 312.889 360.597C312.34 361.371 311.687 361.954 310.929 362.347C310.176 362.734 309.353 362.927 308.46 362.927ZM308.549 361.395C309.399 361.395 310.189 361.178 310.92 360.742C311.646 360.307 312.208 359.74 312.606 359.042C312.988 358.488 313.206 357.891 313.26 357.252L314.284 349.876L312.469 349.811L310.929 349.755C309.245 349.755 307.898 350.306 306.887 351.408C305.871 352.504 305.25 353.931 305.024 355.688C304.97 356.107 304.943 356.524 304.943 356.938C304.943 358.243 305.242 359.313 305.839 360.146C306.43 360.979 307.334 361.395 308.549 361.395ZM327.061 348.167C327.632 348.167 328.191 348.253 328.739 348.425L328.594 350.013C328.083 349.879 327.572 349.811 327.061 349.811C326.093 349.811 325.298 350.069 324.674 350.585C323.975 351.015 323.351 351.676 322.802 352.568L321.439 362.645H319.794L321.1 352.649C321.154 352.273 321.181 351.934 321.181 351.633C321.181 350.666 320.918 349.919 320.391 349.392L321.609 348.312C321.91 348.522 322.179 348.839 322.415 349.263C322.652 349.688 322.8 350.137 322.859 350.609C323.504 349.723 324.09 349.107 324.617 348.763C325.317 348.366 326.131 348.167 327.061 348.167ZM334.757 362.919C333.09 362.919 331.813 362.355 330.925 361.226C330.033 360.103 329.586 358.671 329.586 356.929C329.586 356.478 329.616 356.024 329.675 355.567C329.863 354.132 330.299 352.861 330.982 351.754C331.659 350.647 332.549 349.782 333.652 349.158C334.749 348.53 335.978 348.215 337.338 348.215C338.36 348.215 339.468 348.301 340.662 348.473L341.541 342H343.186L340.775 360.251C340.758 360.326 340.75 360.42 340.75 360.533C340.75 361.081 340.987 361.355 341.46 361.355C341.821 361.355 342.122 361.186 342.364 360.847L343.477 361.871C343.154 362.263 342.818 362.537 342.469 362.693C342.119 362.844 341.726 362.919 341.291 362.919C340.624 362.919 340.073 362.688 339.637 362.226C339.202 361.758 339.032 361.213 339.129 360.589C338.58 361.363 337.932 361.946 337.185 362.339C336.437 362.726 335.628 362.919 334.757 362.919ZM334.902 361.387C335.714 361.387 336.47 361.178 337.169 360.759C337.868 360.345 338.435 359.77 338.871 359.033C339.215 358.561 339.433 357.964 339.524 357.244L340.549 349.981L339.928 349.892C339.132 349.758 338.449 349.69 337.879 349.69C335.835 349.69 334.292 350.217 333.249 351.27C332.211 352.318 331.568 353.743 331.321 355.543C331.261 355.935 331.232 356.33 331.232 356.728C331.232 358.109 331.549 359.232 332.184 360.098C332.818 360.957 333.724 361.387 334.902 361.387ZM347.704 360.315C347.688 360.579 347.744 360.791 347.873 360.952C348.007 361.113 348.188 361.194 348.414 361.194C348.811 361.194 349.115 361.025 349.325 360.686L350.462 361.678C350.269 361.979 349.978 362.239 349.591 362.46C349.204 362.674 348.793 362.782 348.357 362.782C347.599 362.782 347.007 362.537 346.582 362.048C346.158 361.554 345.991 360.928 346.082 360.17L347.623 348.457H349.269L347.704 360.315ZM348.672 346.611C348.365 346.611 348.11 346.506 347.905 346.297C347.696 346.087 347.591 345.832 347.591 345.531C347.591 345.155 347.714 344.838 347.962 344.58C348.209 344.322 348.502 344.193 348.841 344.193C349.164 344.193 349.43 344.297 349.64 344.507C349.844 344.717 349.946 344.983 349.946 345.305C349.946 345.665 349.82 345.972 349.567 346.224C349.309 346.482 349.01 346.611 348.672 346.611ZM358.069 362.927C356.402 362.927 355.125 362.363 354.238 361.234C353.345 360.111 352.898 358.679 352.898 356.938C352.898 356.486 352.928 356.032 352.987 355.575C353.175 354.14 353.616 352.864 354.31 351.746C354.998 350.628 355.891 349.763 356.988 349.15C358.085 348.532 359.317 348.223 360.683 348.223C361.704 348.223 362.812 348.309 364.006 348.481H365.676L364.143 360.259C364.127 360.334 364.119 360.428 364.119 360.541C364.119 361.089 364.356 361.363 364.829 361.363C365.189 361.363 365.49 361.194 365.732 360.855L366.845 361.879C366.501 362.271 366.154 362.546 365.805 362.701C365.455 362.852 365.073 362.927 364.659 362.927C363.993 362.927 363.444 362.696 363.014 362.234C362.578 361.766 362.406 361.221 362.498 360.597C361.949 361.371 361.296 361.954 360.537 362.347C359.779 362.734 358.956 362.927 358.069 362.927ZM358.158 361.395C359.007 361.395 359.798 361.178 360.529 360.742C361.255 360.307 361.817 359.74 362.215 359.042C362.592 358.488 362.809 357.891 362.869 357.252L363.893 349.876L362.07 349.811L360.537 349.755C358.854 349.755 357.507 350.306 356.496 351.408C355.48 352.504 354.859 353.931 354.633 355.688C354.579 356.107 354.552 356.524 354.552 356.938C354.552 358.243 354.848 359.313 355.439 360.146C356.036 360.979 356.942 361.395 358.158 361.395ZM382.043 360.678L383.148 361.67C382.981 361.97 382.704 362.231 382.317 362.451C381.924 362.666 381.51 362.774 381.075 362.774C380.322 362.774 379.73 362.529 379.3 362.04C378.875 361.546 378.711 360.92 378.808 360.162L379.744 353.044C379.781 352.662 379.8 352.378 379.8 352.189C379.8 350.523 378.959 349.69 377.275 349.69C376.329 349.69 375.485 349.938 374.742 350.432C374.006 350.921 373.231 351.649 372.419 352.617L371.056 362.637H369.411L370.742 352.617C370.779 352.16 370.798 351.848 370.798 351.682C370.798 350.677 370.543 349.9 370.032 349.352L371.225 348.272C371.527 348.503 371.801 348.831 372.048 349.255C372.296 349.68 372.446 350.139 372.5 350.634C373.221 349.763 373.987 349.132 374.799 348.739C375.616 348.352 376.506 348.159 377.469 348.159C378.813 348.159 379.841 348.519 380.55 349.239C381.26 349.959 381.569 351.018 381.478 352.415L380.421 360.307C380.405 360.57 380.464 360.783 380.599 360.944C380.728 361.105 380.897 361.186 381.107 361.186C381.295 361.186 381.475 361.137 381.647 361.041C381.814 360.949 381.946 360.828 382.043 360.678Z" fill="#2E7D32"/>
</g>
<defs>
<filter id="filter0_d_191_2842" x="0" y="0" width="502" height="507" filterUnits="userSpaceOnUse" color-interpolation-filters="sRGB">
<feFlood flood-opacity="0" result="BackgroundImageFix"/>
<feColorMatrix in="SourceAlpha" type="matrix" values="0 0 0 0 0 0 0 0 0 0 0 0 0 0 0 0 0 0 127 0" result="hardAlpha"/>
<feMorphology radius="14" operator="dilate" in="SourceAlpha" result="effect1_dropShadow_191_2842"/>
<feOffset dy="4"/>
<feGaussianBlur stdDeviation="26"/>
<feComposite in2="hardAlpha" operator="out"/>
<feColorMatrix type="matrix" values="0 0 0 0 0 0 0 0 0 0 0 0 0 0 0 0 0 0 0.25 0"/>
<feBlend mode="normal" in2="BackgroundImageFix" result="effect1_dropShadow_191_2842"/>
<feBlend mode="normal" in="SourceGraphic" in2="effect1_dropShadow_191_2842" result="shape"/>
</filter>
<linearGradient id="paint0_linear_191_2842" x1="251" y1="62" x2="251" y2="437" gradientUnits="userSpaceOnUse">
<stop offset="0.39" stop-color="#D0F2D9"/>
<stop offset="0.85" stop-color="#E7F0D6"/>
</linearGradient>
</defs>
</svg>
