<svg width="20" height="20" viewBox="0 0 20 20" fill="none" xmlns="http://www.w3.org/2000/svg">
<path d="M12.9832 10C12.9832 11.65 11.6499 12.9834 9.9999 12.9834C8.3499 12.9834 7.0166 11.65 7.0166 10C7.0166 8.35002 8.3499 7.01672 9.9999 7.01672C11.6499 7.01672 12.9832 8.35002 12.9832 10Z" stroke="#2E7D32" stroke-width="1.5" stroke-linecap="round" stroke-linejoin="round"/>
<path d="M9.9999 16.8917C12.9416 16.8917 15.6832 15.1583 17.5916 12.1583C18.3416 10.9833 18.3416 9.00833 17.5916 7.83331C15.6832 4.83331 12.9416 3.09998 9.9999 3.09998C7.0582 3.09998 4.31654 4.83331 2.4082 7.83331C1.6582 9.00833 1.6582 10.9833 2.4082 12.1583C4.31654 15.1583 7.0582 16.8917 9.9999 16.8917Z" stroke="#2E7D32" stroke-width="1.5" stroke-linecap="round" stroke-linejoin="round"/>
</svg>
