<svg width="40" height="40" viewBox="0 0 40 40" fill="none" xmlns="http://www.w3.org/2000/svg">
<path d="M40 21.25C40 21.125 40 21 39.875 20.875C39.875 20.875 39.875 20.875 39.875 20.75L36.125 13.25C35.875 12.75 35.5 12.5 35 12.5H26.25C25.5 12.5 25 13 25 13.75V20H22.5V16.25V11.25C22.5 10.5 22 10 21.25 10H15H8.75H2.5C1.75 10 1.25 10.5 1.25 11.25V16.25V20C0.5 20 0 20.5 0 21.25V28.75C0 29.5 0.5 30 1.25 30H3.75C3.75 32.75 6 35 8.75 35C11.5 35 13.75 32.75 13.75 30H26.25H27.5C27.5 32.75 29.75 35 32.5 35C35.25 35 37.5 32.75 37.5 30H38.75C39.5 30 40 29.5 40 28.75V21.25ZM27.5 15H34.25L36.75 20H27.5V15ZM10 20V17.5H13.75V20H10ZM16.25 17.5H20V20H16.25V17.5ZM20 15H16.25V12.5H20V15ZM13.75 15H10V12.5H13.75V15ZM3.75 12.5H7.5V15H3.75V12.5ZM3.75 17.5H7.5V20H3.75V17.5ZM8.75 32.5C7.375 32.5 6.25 31.375 6.25 30C6.25 28.625 7.375 27.5 8.75 27.5C10.125 27.5 11.25 28.625 11.25 30C11.25 31.375 10.125 32.5 8.75 32.5ZM32.5 32.5C31.125 32.5 30 31.375 30 30C30 28.625 31.125 27.5 32.5 27.5C33.875 27.5 35 28.625 35 30C35 31.375 33.875 32.5 32.5 32.5Z" fill="#2E7D32"/>
</svg>
