<svg width="40" height="40" viewBox="0 0 40 40" fill="none" xmlns="http://www.w3.org/2000/svg">
<g clip-path="url(#clip0_88_1138)">
<path d="M35.0002 4.99992V8.33325C35.0002 14.7766 29.7768 19.9999 23.3335 19.9999H21.6668V21.6666H30.0002V33.3333C30.0002 35.1749 28.5085 36.6666 26.6668 36.6666H13.3335C11.4918 36.6666 10.0002 35.1749 10.0002 33.3333V21.6666H18.3335V16.6666C18.3335 10.2233 23.5568 4.99992 30.0002 4.99992H35.0002ZM9.16683 3.33325C13.3818 3.33325 17.1085 5.41825 19.3735 8.61492C17.6735 10.8499 16.6668 13.6416 16.6668 16.6666V18.3333H15.8335C8.93016 18.3333 3.3335 12.7366 3.3335 5.83325V3.33325H9.16683Z" fill="#2E7D32"/>
</g>
<defs>
<clipPath id="clip0_88_1138">
<rect width="40" height="40" fill="white"/>
</clipPath>
</defs>
</svg>
