<svg width="40" height="40" viewBox="0 0 40 40" fill="none" xmlns="http://www.w3.org/2000/svg">
<path d="M38.0822 17.1507H40V14.0457H38.0822V9.94645C38.0822 9.72145 38.0155 9.50426 37.8653 9.33668L35.1946 6.34934C35.0214 6.15621 34.7784 6.0459 34.5188 6.0459C34.2593 6.0459 34.0141 6.15621 33.841 6.34934L31.1772 9.3366C31.0269 9.50418 30.9589 9.72137 30.9589 9.94637V14.0457H28.4018V9.94637C28.4018 9.72137 28.3344 9.50418 28.1841 9.3366L25.513 6.34934C25.3399 6.15621 25.0965 6.0459 24.837 6.0459C24.5776 6.0459 24.3323 6.15621 24.1591 6.34934L21.496 9.3366C21.3457 9.50418 21.2785 9.72137 21.2785 9.94637V14.0457H18.7214V9.94637C18.7214 9.72137 18.6532 9.50418 18.503 9.3366L15.8315 6.34934C15.6582 6.15621 15.4148 6.0459 15.1553 6.0459C14.8959 6.0459 14.6505 6.15621 14.4773 6.34934L11.8151 9.3366C11.6648 9.50418 11.5983 9.72137 11.5983 9.94637V14.0457H9.04109V9.94637C9.04109 9.72137 8.97203 9.50418 8.8218 9.3366L6.14992 6.34934C5.9768 6.15621 5.73305 6.0459 5.47359 6.0459C5.21414 6.0459 4.96867 6.15621 4.79539 6.34934L2.13375 9.3366C1.98352 9.50418 1.91773 9.72137 1.91773 9.94637V14.0457H0V17.1507H1.91781V25.8264H0V28.9314H1.91781V33.0043C1.91781 33.5086 2.29383 33.9543 2.7982 33.9543H8.15602C8.66039 33.9543 9.04109 33.5086 9.04109 33.0043V28.9314H11.5982V33.0043C11.5982 33.5086 11.9757 33.9543 12.4802 33.9543H17.838C18.3423 33.9543 18.7214 33.5086 18.7214 33.0043V28.9314H21.2785V33.0043C21.2785 33.5086 21.6576 33.9543 22.162 33.9543H27.5198C28.0241 33.9543 28.4017 33.5086 28.4017 33.0043V28.9314H30.9588V33.0043C30.9588 33.5086 31.3395 33.9543 31.8439 33.9543H37.2017C37.7061 33.9543 38.0821 33.5086 38.0821 33.0043V30.7667V28.9314H39.9999V25.8264H38.082V17.1507H38.0822V17.1507ZM11.5982 25.8265H9.04109V17.1507H11.5982V25.8265ZM21.2785 25.8265H18.7214V17.1507H21.2785V25.8265ZM30.9589 25.8265H28.4018V17.1507H30.9589V25.8265Z" fill="#2E7D32"/>
</svg>
