<svg width="40" height="40" viewBox="0 0 40 40" fill="none" xmlns="http://www.w3.org/2000/svg">
<path d="M3.3335 6.66667C3.3335 6.22464 3.50909 5.80072 3.82165 5.48816C4.13421 5.17559 4.55814 5 5.00016 5H35.0002C35.4422 5 35.8661 5.17559 36.1787 5.48816C36.4912 5.80072 36.6668 6.22464 36.6668 6.66667C36.6668 7.10869 36.4912 7.53262 36.1787 7.84518C35.8661 8.15774 35.4422 8.33333 35.0002 8.33333H5.00016C4.55814 8.33333 4.13421 8.15774 3.82165 7.84518C3.50909 7.53262 3.3335 7.10869 3.3335 6.66667ZM5.00016 21.6667H35.0002C35.4422 21.6667 35.8661 21.4911 36.1787 21.1785C36.4912 20.8659 36.6668 20.442 36.6668 20C36.6668 19.558 36.4912 19.134 36.1787 18.8215C35.8661 18.5089 35.4422 18.3333 35.0002 18.3333H5.00016C4.55814 18.3333 4.13421 18.5089 3.82165 18.8215C3.50909 19.134 3.3335 19.558 3.3335 20C3.3335 20.442 3.50909 20.8659 3.82165 21.1785C4.13421 21.4911 4.55814 21.6667 5.00016 21.6667ZM5.00016 35H20.0002C20.4422 35 20.8661 34.8244 21.1787 34.5118C21.4912 34.1993 21.6668 33.7754 21.6668 33.3333C21.6668 32.8913 21.4912 32.4674 21.1787 32.1548C20.8661 31.8423 20.4422 31.6667 20.0002 31.6667H5.00016C4.55814 31.6667 4.13421 31.8423 3.82165 32.1548C3.50909 32.4674 3.3335 32.8913 3.3335 33.3333C3.3335 33.7754 3.50909 34.1993 3.82165 34.5118C4.13421 34.8244 4.55814 35 5.00016 35Z" fill="#2E7D32"/>
</svg>
