<svg width="20" height="20" viewBox="0 0 20 20" fill="none" xmlns="http://www.w3.org/2000/svg">
<g clip-path="url(#clip0_5_135)">
<path d="M12.1082 7.89172L7.8916 12.1084C7.34994 11.5667 7.0166 10.825 7.0166 10C7.0166 8.35002 8.3499 7.01672 9.9999 7.01672C10.8249 7.01672 11.5666 7.35006 12.1082 7.89172Z" stroke="#2C7730" stroke-width="1.5" stroke-linecap="round" stroke-linejoin="round"/>
<path d="M14.8499 4.80834C13.3916 3.70834 11.7249 3.10834 9.99989 3.10834C7.0582 3.10834 4.31654 4.84167 2.4082 7.84167C1.6582 9.01669 1.6582 10.9917 2.4082 12.1667C3.06654 13.2 3.8332 14.0917 4.66654 14.8084" stroke="#2C7730" stroke-width="1.5" stroke-linecap="round" stroke-linejoin="round"/>
<path d="M7.0166 16.2751C7.9666 16.6751 8.9749 16.8918 9.9999 16.8918C12.9416 16.8918 15.6832 15.1584 17.5916 12.1584C18.3416 10.9834 18.3416 9.00844 17.5916 7.8334C17.3166 7.40007 17.0166 6.99173 16.7082 6.6084" stroke="#2C7730" stroke-width="1.5" stroke-linecap="round" stroke-linejoin="round"/>
<path d="M12.925 10.5834C12.7083 11.7584 11.75 12.7167 10.575 12.9334" stroke="#2C7730" stroke-width="1.5" stroke-linecap="round" stroke-linejoin="round"/>
<path d="M7.89175 12.1083L1.66675 18.3333" stroke="#2C7730" stroke-width="1.5" stroke-linecap="round" stroke-linejoin="round"/>
<path d="M18.3334 1.66669L12.1084 7.89169" stroke="#2C7730" stroke-width="1.5" stroke-linecap="round" stroke-linejoin="round"/>
</g>
<defs>
<clipPath id="clip0_5_135">
<rect width="20" height="20" fill="white"/>
</clipPath>
</defs>
</svg>
